<?xml version="1.0" encoding="UTF-8" standalone="no"?>
<svg
   xmlns:dc="http://purl.org/dc/elements/1.1/"
   xmlns:cc="http://creativecommons.org/ns#"
   xmlns:rdf="http://www.w3.org/1999/02/22-rdf-syntax-ns#"
   xmlns:svg="http://www.w3.org/2000/svg"
   xmlns="http://www.w3.org/2000/svg"
   xmlns:sodipodi="http://sodipodi.sourceforge.net/DTD/sodipodi-0.dtd"
   xmlns:inkscape="http://www.inkscape.org/namespaces/inkscape"
   version="1.1"
   id="Capa_1"
   x="0px"
   y="0px"
   width="128"
   height="128"
   viewBox="0 0 128 128"
   xml:space="preserve"
   inkscape:version="0.91 r13725"
   sodipodi:docname="abc.svg"><metadata
     id="metadata3355"><rdf:RDF><cc:Work
         rdf:about=""><dc:format>image/svg+xml</dc:format><dc:type
           rdf:resource="http://purl.org/dc/dcmitype/StillImage" /><dc:title></dc:title></cc:Work></rdf:RDF></metadata><defs
     id="defs3353" /><sodipodi:namedview
     pagecolor="#ffffff"
     bordercolor="#666666"
     borderopacity="1"
     objecttolerance="10"
     gridtolerance="10"
     guidetolerance="10"
     inkscape:pageopacity="0"
     inkscape:pageshadow="2"
     inkscape:window-width="1430"
     inkscape:window-height="841"
     id="namedview3351"
     showgrid="false"
     inkscape:zoom="1.9895928"
     inkscape:cx="163.35001"
     inkscape:cy="123.14077"
     inkscape:window-x="0"
     inkscape:window-y="0"
     inkscape:window-maximized="0"
     inkscape:current-layer="Capa_1" /><g
     id="g3373"
     transform="translate(0,-1.1526059)"><g
       transform="matrix(0.39179676,0,0,0.39506173,0,0.619272)"
       id="g3337"><path
         inkscape:connector-curvature="0"
         id="path3339"
         d="m 216,157.95 c 14.913,0 27,-12.092 27,-27 l 0,-102.6 c 0,-14.908 -12.087,-27 -27,-27 l -102.6,0 c -14.908,0 -27,12.092 -27,27 l 0,102.6 c 0,14.908 12.092,27 27,27 l 102.6,0 z m -113.4,-27 0,-102.6 c 0,-5.956 4.843,-10.8 10.8,-10.8 l 102.6,0 c 5.959,0 10.8,4.844 10.8,10.8 l 0,102.6 c 0,5.957 -4.841,10.8 -10.8,10.8 l -102.6,0 c -5.957,0 -10.8,-4.843 -10.8,-10.8 z" /><path
         inkscape:connector-curvature="0"
         id="path3341"
         d="m 0,195.75 0,102.6 c 0,14.908 12.092,27 27,27 l 102.6,0 c 14.911,0 27,-12.092 27,-27 l 0,-102.6 c 0,-14.908 -12.089,-27 -27,-27 l -102.6,0 c -14.916,0 -27,12.092 -27,27 z m 140.4,0 0,102.6 c 0,5.959 -4.843,10.8 -10.8,10.8 l -102.6,0 c -5.956,0 -10.8,-4.841 -10.8,-10.8 l 0,-102.6 c 0,-5.959 4.844,-10.801 10.8,-10.801 l 102.6,0 c 5.957,10e-4 10.8,4.843 10.8,10.801 z" /><path
         inkscape:connector-curvature="0"
         id="path3343"
         d="m 326.7,195.75 c 0,-14.908 -12.087,-27 -27,-27 l -102.6,0 c -14.907,0 -27,12.092 -27,27 l 0,102.6 c 0,14.908 12.093,27 27,27 l 102.6,0 c 14.913,0 27,-12.092 27,-27 l 0,-102.6 z m -16.2,102.6 c 0,5.959 -4.841,10.8 -10.8,10.8 l -102.6,0 c -5.959,0 -10.8,-4.841 -10.8,-10.8 l 0,-102.6 c 0,-5.959 4.841,-10.801 10.8,-10.801 l 102.6,0 c 5.959,0 10.8,4.842 10.8,10.801 l 0,102.6 z" /><path
         inkscape:connector-curvature="0"
         id="path3345"
         d="m 120.891,127.317 c 1.155,0.572 2.387,0.846 3.602,0.846 2.974,0 5.843,-1.645 7.256,-4.499 l 7.349,-14.768 51.205,0 7.346,14.768 c 1.419,2.845 4.282,4.499 7.256,4.499 1.219,0 2.447,-0.274 3.607,-0.846 4.008,-1.994 5.638,-6.858 3.644,-10.861 L 171.952,35.635 c -0.032,-0.066 -0.079,-0.119 -0.111,-0.185 -0.137,-0.258 -0.295,-0.49 -0.464,-0.728 -0.137,-0.206 -0.264,-0.422 -0.427,-0.612 -0.164,-0.193 -0.349,-0.367 -0.522,-0.546 -0.2,-0.198 -0.39,-0.403 -0.611,-0.583 -0.174,-0.14 -0.364,-0.259 -0.549,-0.383 -0.253,-0.179 -0.512,-0.351 -0.791,-0.503 -0.063,-0.032 -0.105,-0.074 -0.169,-0.104 -0.147,-0.073 -0.306,-0.105 -0.458,-0.171 -0.274,-0.119 -0.557,-0.232 -0.836,-0.319 -0.245,-0.071 -0.493,-0.118 -0.736,-0.174 -0.264,-0.053 -0.529,-0.101 -0.793,-0.129 -0.259,-0.026 -0.52,-0.026 -0.783,-0.026 -0.259,0 -0.524,0 -0.783,0.026 -0.264,0.028 -0.53,0.076 -0.794,0.129 -0.248,0.05 -0.49,0.098 -0.728,0.169 -0.287,0.087 -0.569,0.2 -0.854,0.324 -0.145,0.065 -0.303,0.098 -0.448,0.166 -0.061,0.029 -0.103,0.071 -0.161,0.103 -0.288,0.153 -0.551,0.335 -0.817,0.515 -0.177,0.124 -0.361,0.231 -0.527,0.366 -0.227,0.185 -0.427,0.396 -0.633,0.604 -0.174,0.174 -0.345,0.338 -0.503,0.53 -0.161,0.2 -0.295,0.417 -0.436,0.628 -0.158,0.231 -0.319,0.464 -0.453,0.717 -0.034,0.066 -0.082,0.119 -0.113,0.185 l -40.205,80.821 c -1.996,4.003 -0.364,8.868 3.644,10.862 z m 43.809,-69.889 17.539,35.269 -35.084,0 17.545,-35.269 z" /><path
         inkscape:connector-curvature="0"
         id="path3347"
         d="m 58.946,297.623 20.53,0 c 17.465,0 31.672,-14.207 31.672,-31.673 0,-12.107 -6.837,-22.633 -16.844,-27.97 3.193,-4.324 5.142,-9.619 5.142,-15.404 0,-14.391 -11.707,-26.098 -26.098,-26.098 l -14.402,0 c -6.014,0 -11.063,3.981 -12.804,9.423 -0.438,0.997 -0.696,2.104 -0.696,3.265 l 0,0.812 0,25.201 0,12.599 0,36.345 0,0.464 c 0,0.644 0.093,1.266 0.237,1.861 1.113,6.334 6.622,11.175 13.263,11.175 z M 94.948,265.95 c 0,8.533 -6.94,15.473 -15.472,15.473 l -17.83,0 0,-30.944 17.83,0 c 8.532,-0.001 15.472,6.938 15.472,15.471 z M 83.247,222.576 c 0,5.458 -4.438,9.898 -9.898,9.898 l -11.703,0 0,-19.802 11.702,0 c 5.461,0.006 9.899,4.446 9.899,9.904 z" /><path
         inkscape:connector-curvature="0"
         id="path3349"
         d="m 276.729,270.422 c -5.979,5.632 -13.795,8.732 -22.011,8.732 -17.698,0 -32.095,-14.407 -32.095,-32.104 0,-17.698 14.396,-32.104 32.095,-32.104 7.862,0 15.419,2.873 21.299,8.084 3.349,2.969 8.475,2.668 11.438,-0.681 2.969,-3.343 2.658,-8.469 -0.686,-11.433 -8.844,-7.847 -20.219,-12.16 -32.047,-12.16 -26.631,0 -48.299,21.663 -48.299,48.299 0,26.637 21.668,48.3 48.299,48.3 12.361,0 24.126,-4.662 33.123,-13.142 3.253,-3.069 3.406,-8.195 0.337,-11.454 -3.069,-3.248 -8.194,-3.406 -11.453,-0.337 z" /></g></g></svg>