<?xml version="1.0" encoding="iso-8859-1"?>
<!-- Generator: Adobe Illustrator 19.0.0, SVG Export Plug-In . SVG Version: 6.00 Build 0)  -->
<svg version="1.1" id="Capa_1" xmlns="http://www.w3.org/2000/svg" xmlns:xlink="http://www.w3.org/1999/xlink" x="0px" y="0px"
	 viewBox="0 0 502.686 502.686" style="enable-background:new 0 0 502.686 502.686;" xml:space="preserve">
<g>
	<g>
		<g>
			<path style="fill:#010002;" d="M410.6,0H32.313v451.476H410.6V0z M387.864,428.741c-20.622,0-312.172,0-332.816,0
				c0-20.988,0-385.06,0-405.984c20.665,0,312.194,0,332.816,0C387.864,43.702,387.864,407.774,387.864,428.741z"/>
			<rect x="94.739" y="73.319" style="fill:#010002;" width="258.591" height="23.857"/>
			<rect x="94.739" y="148.493" style="fill:#010002;" width="258.591" height="23.836"/>
			<polygon style="fill:#010002;" points="426.174,51.166 426.174,73.923 447.594,73.923 447.594,479.885 114.757,479.885 
				114.757,464.117 91.978,464.117 91.978,502.686 470.372,502.686 470.372,51.166 			"/>
			<path style="fill:#010002;" d="M104.403,325.352c4.487,0,8.585-1.273,12.36-3.128l32.442,26.532
				c-0.173,1.251-0.733,2.33-0.733,3.624c0,15.704,12.727,28.409,28.409,28.409s28.409-12.727,28.409-28.409
				c0-4.508-1.294-8.607-3.149-12.403c15.596-23.383,35.506-53.28,47.456-71.205c1.834,0.388,3.559,1.122,5.501,1.122
				c6.816,0,12.835-2.718,17.731-6.73c10.678,6.234,24.548,14.323,36.498,21.29c-0.022,0.41-0.237,0.712-0.237,1.122
				c0,15.704,12.727,28.409,28.409,28.409s28.387-12.727,28.387-28.409c0-15.682-12.705-28.409-28.387-28.409
				c-6.946,0-13.072,2.783-18.033,6.924l-36.304-21.183c0.022-0.475,0.28-0.884,0.28-1.359c0-15.682-12.705-28.366-28.366-28.366
				s-28.344,12.705-28.344,28.366c0,5.263,1.812,9.901,4.293,14.129c-14.905,22.39-34.362,51.576-46.55,69.889
				c-2.459-0.733-4.897-1.575-7.593-1.575c-5.867,0-11.023,2.222-15.553,5.263c-8.995-7.377-20.126-16.48-30.07-24.612
				c0.712-2.502,1.553-4.961,1.553-7.679c0-15.725-12.791-28.409-28.409-28.387c-15.725,0-28.43,12.684-28.43,28.387
				C75.951,312.625,88.656,325.352,104.403,325.352z"/>
		</g>
	</g>
	<g>
	</g>
	<g>
	</g>
	<g>
	</g>
	<g>
	</g>
	<g>
	</g>
	<g>
	</g>
	<g>
	</g>
	<g>
	</g>
	<g>
	</g>
	<g>
	</g>
	<g>
	</g>
	<g>
	</g>
	<g>
	</g>
	<g>
	</g>
	<g>
	</g>
</g>
<g>
</g>
<g>
</g>
<g>
</g>
<g>
</g>
<g>
</g>
<g>
</g>
<g>
</g>
<g>
</g>
<g>
</g>
<g>
</g>
<g>
</g>
<g>
</g>
<g>
</g>
<g>
</g>
<g>
</g>
</svg>
